<?xml version="1.0" encoding="utf-8"?>
<!-- Generator: Adobe Illustrator 16.0.0, SVG Export Plug-In . SVG Version: 6.00 Build 0)  -->
<!DOCTYPE svg PUBLIC "-//W3C//DTD SVG 1.1//EN" "http://www.w3.org/Graphics/SVG/1.1/DTD/svg11.dtd">
<svg version="1.1" id="Layer_1" xmlns="http://www.w3.org/2000/svg" xmlns:xlink="http://www.w3.org/1999/xlink" x="0px" y="0px"
	 width="600px" height="600px" viewBox="0 0 600 600" enable-background="new 0 0 600 600" xml:space="preserve">
<g>
	<path fill="#E23237" d="M26.556,106.132L296.368,10l277.076,94.423l-44.861,356.974L296.368,590L67.786,463.105L26.556,106.132z"/>
	<path fill="#B52E31" d="M573.444,104.423L296.368,10v580l232.215-128.389L573.444,104.423L573.444,104.423z"/>
	<path fill="#FFFFFF" d="M296.795,77.72L296.795,77.72L128.669,451.782l62.807-1.067l33.754-84.385h71.779h0.213h78.828
		l36.959,85.452l60.028,1.067L296.795,77.72L296.795,77.72z M297.223,197.566l56.824,118.776h-54.474h-2.777h-49.563
		L297.223,197.566L297.223,197.566z"/>
</g>
</svg>
